<svg id="visual" viewBox="0 0 900 600" width="900" height="600" xmlns="http://www.w3.org/2000/svg" xmlns:xlink="http://www.w3.org/1999/xlink" version="1.1"><rect x="0" y="0" width="900" height="600" fill="#7CB342"></rect><path d="M0 393L25 399.2C50 405.3 100 417.7 150 434C200 450.3 250 470.7 300 480.5C350 490.3 400 489.7 450 471.8C500 454 550 419 600 410C650 401 700 418 750 433.5C800 449 850 463 875 470L900 477L900 601L875 601C850 601 800 601 750 601C700 601 650 601 600 601C550 601 500 601 450 601C400 601 350 601 300 601C250 601 200 601 150 601C100 601 50 601 25 601L0 601Z" fill="#F1F8E9" stroke-linecap="round" stroke-linejoin="miter"></path></svg>