<svg id="visual" viewBox="0 0 960 540" width="960" height="540" xmlns="http://www.w3.org/2000/svg" xmlns:xlink="http://www.w3.org/1999/xlink" version="1.1"><rect x="0" y="0" width="960" height="540" fill="#7CB342"></rect><path d="M0 458L32 460C64 462 128 466 192 468C256 470 320 470 384 458.5C448 447 512 424 576 413.3C640 402.7 704 404.3 768 414.5C832 424.7 896 443.3 928 452.7L960 462L960 541L928 541C896 541 832 541 768 541C704 541 640 541 576 541C512 541 448 541 384 541C320 541 256 541 192 541C128 541 64 541 32 541L0 541Z" fill="#F1F8E9" stroke-linecap="round" stroke-linejoin="miter"></path></svg>