<svg id="visual" viewBox="0 0 960 540" width="960" height="540" xmlns="http://www.w3.org/2000/svg" xmlns:xlink="http://www.w3.org/1999/xlink" version="1.1"><rect x="0" y="0" width="960" height="540" fill="#7CB342"></rect><path d="M0 474L32 475.7C64 477.3 128 480.7 192 482.3C256 484 320 484 384 474.8C448 465.7 512 447.3 576 438.8C640 430.3 704 431.7 768 439.8C832 448 896 463 928 470.5L960 478L960 541L928 541C896 541 832 541 768 541C704 541 640 541 576 541C512 541 448 541 384 541C320 541 256 541 192 541C128 541 64 541 32 541L0 541Z" fill="#F1F8E9" stroke-linecap="round" stroke-linejoin="miter"></path></svg>